<?xml version="1.0" encoding="UTF-8" standalone="no"?>
<svg
   viewBox="0 0 64 64"
   version="1.1"
   id="svg8"
   xmlns="http://www.w3.org/2000/svg"
   xmlns:svg="http://www.w3.org/2000/svg">
  <g
     id="layer1"
     style="display:inline"
     >
    <circle
       style="fill:#ffffff;fill-opacity:1;fill-rule:evenodd;stroke:#ffffff;stroke-width:3;stroke-miterlimit:4;stroke-dasharray:none;stroke-opacity:1"
       id="path44560"
       cx="31.960989"
       cy="31.568796"
       r="30" />
  </g>
  <g
     id="layer2"
     style="display:inline">
    <g
       fill="#4b0082"
       id="g6"
       transform="matrix(0.60464582,-0.06996219,0.07060896,0.61023556,4.4296255,17.486453)"
       >
      <path
         id="path2"
         d="m 46.213462,-7.3013109 -5.147346,8.9446816 c -0.873932,1.5186551 4.555158,3.8176229 4.555158,3.8176229 0,0 4.954323,-1.9436102 4.299754,-3.5670313 z M 27.320472,12.96601 c -2.330598,0.547578 -4.231618,1.249292 -6.679073,2.625986 -0.786683,0.437046 -2.272959,1.312259 -2.360369,2.098939 0,0.524456 1.922357,3.147279 3.408312,6.818463 2.010411,-1.311137 4.807582,-3.673592 8.041721,-3.93582 5.594187,-0.524454 6.033245,4.89685 0.526467,5.945759 -2.272638,0.437046 -4.284818,-0.17448 -6.207819,-0.524117 1.04891,2.447457 -0.523167,7.078626 1.312425,8.7394 1.748183,1.573365 4.282242,-0.349467 6.292652,-0.262058 2.971912,0.0874 4.981516,3.322267 3.58297,6.556404 -1.835593,4.108231 -8.826308,5.156331 -13.021949,2.534056 -8.041643,-5.069731 -6.555766,-14.596158 -8.041719,-14.596158 -1.835593,-0.174818 -2.710656,23.600089 14.596358,23.600089 6.905324,0 12.760526,-5.243852 12.148661,-12.58622 -0.174817,-2.185229 -0.960132,-4.022927 -1.484586,-5.683701 9.590817,-4.188892 6.211759,-8.946347 11.088506,-9.787634 2.609442,-0.450154 6.561905,0.442969 7.370437,2.942139 3.000717,9.275214 -16.11441,14.904938 -15.849428,24.641506 0.111306,4.089856 3.795617,7.680622 7.210877,9.980143 4.41882,2.975225 10.215441,4.09301 15.55185,3.840215 3.86773,-0.183221 7.742901,-1.689538 10.952292,-3.836105 4.054613,-2.711885 7.384022,-6.639105 9.710562,-10.902944 3.606358,-6.609357 5.784002,-14.224921 6.028717,-21.734478 C 91.741973,21.963377 90.095077,14.248022 86.917485,7.4624994 83.702491,0.59710823 78.866107,-5.836645 72.773671,-10.401773 65.562751,-15.804993 56.668427,-19.625582 47.681729,-20.603311 38.580551,-21.593495 28.91844,-19.799878 20.613049,-15.98153 13.294662,-12.61695 6.6085829,-7.1762275 2.073445,-0.56486774 -3.3015469,7.2708379 -6.4329686,16.944772 -6.9863161,26.403174 c -0.4587453,7.841359 1.557863,15.924023 4.8533521,23.067644 2.6740885,5.796612 6.8714471,10.997357 11.7082921,15.19886 4.7899339,4.160754 10.6297329,7.15983 16.5772889,9.42005 3.693232,1.40352 7.663865,2.099628 11.601593,2.471315 3.769765,0.355833 8.661515,0.239089 11.357794,-0.245446 -1.234587,0.06721 -5.204577,0.154208 -7.788042,-0.100623 C 37.22593,75.810747 33.05558,75.340709 29.180849,73.958225 23.743841,72.018329 18.486934,69.26213 14.015831,65.6346 9.4400575,61.922148 5.2922982,57.418578 2.5260256,52.239247 -0.86101238,45.897649 -3.12928,38.662905 -3.2483977,31.48901 -3.3833636,23.360647 -1.5202084,14.858452 2.5101999,7.777477 6.5312647,0.71291755 12.74738,-5.5152285 19.969253,-9.3333114 27.226706,-13.170205 35.95101,-14.816479 44.15335,-14.199731 c 7.407591,0.55699 14.820694,3.40997 20.921371,7.6102604 4.829285,3.3249417 8.671915,8.1554579 11.474297,13.2781326 2.825894,5.165653 4.776195,11.043231 5.007381,16.914478 0.17668,4.487014 -1.013664,9.055352 -2.798736,13.182768 -1.480731,3.423721 -3.675111,6.631287 -6.390063,9.207699 -2.521741,2.39306 -5.475611,4.735441 -8.879549,5.50645 -2.452858,0.555585 -6.276749,1.357828 -7.502987,-0.819149 -3.646671,-6.474043 9.320506,-12.687648 9.621277,-20.09576 0.125174,-3.083088 -1.023551,-6.563678 -3.313203,-8.655069 -2.843581,-2.597354 -6.86355,-3.278313 -11.146598,-3.190904 -6.031233,0 -8.304351,4.807579 -10.314761,8.828401 -0.611864,1.223728 -1.660451,3.147003 -3.058997,3.409231 -1.660775,0.349637 -2.621388,-0.611189 -3.670298,-1.048234 2.272637,-1.835592 4.3711,-4.022624 4.720736,-7.431579 0.611864,-5.506779 -2.737583,-8.260702 -7.355921,-9.48903 -1.732885,-0.353591 -2.920728,-0.330028 -4.146827,-0.04195 z"
          />
      <path
         d="m 41.801917,17.31712 c 7.9,1.8 18.74286,-5.944454 18.74286,-7.9444535 0,-2.5999999 -4.7,-5.0999999 -5.6,-6.1999999 -2.5,3.3 -7.1,7.3999994 -13,5.7999999 -5.9,-1.5999999 -8.3,-9.29999994 -8.3,-9.29999994 -0.8,2.50000004 -0.8,5.50000004 0.1,7.90000004 1.4,3.3999994 4.35714,8.8444534 8.05714,9.7444534"
         id="path4"
          />
    </g>
  </g>
</svg>
